<svg width="49" height="50" viewBox="0 0 49 50" fill="none" xmlns="http://www.w3.org/2000/svg">
<g id="Help">
<path id="Vector" d="M22.9688 23.4688L23.0525 23.4279C23.3143 23.2971 23.6081 23.2441 23.8991 23.2751C24.1901 23.3061 24.4661 23.4199 24.6945 23.6029C24.9228 23.7859 25.0939 24.0306 25.1876 24.3078C25.2812 24.5851 25.2934 24.8834 25.2228 25.1674L23.7773 30.9576C23.7061 31.2417 23.7179 31.5403 23.8113 31.8179C23.9047 32.0955 24.0758 32.3406 24.3043 32.5239C24.5327 32.7072 24.809 32.8211 25.1002 32.8522C25.3915 32.8833 25.6856 32.8301 25.9475 32.6991L26.0313 32.6563M42.875 25C42.875 27.413 42.3997 29.8025 41.4763 32.0318C40.5529 34.2612 39.1994 36.2868 37.4931 37.9931C35.7868 39.6994 33.7612 41.0529 31.5318 41.9763C29.3025 42.8997 26.913 43.375 24.5 43.375C22.087 43.375 19.6976 42.8997 17.4682 41.9763C15.2388 41.0529 13.2132 39.6994 11.5069 37.9931C9.80064 36.2868 8.44714 34.2612 7.52371 32.0318C6.60028 29.8025 6.125 27.413 6.125 25C6.125 20.1266 8.06093 15.4529 11.5069 12.0069C14.9529 8.56093 19.6266 6.625 24.5 6.625C29.3734 6.625 34.0471 8.56093 37.4931 12.0069C40.9391 15.4529 42.875 20.1266 42.875 25ZM24.5 17.3438H24.5163V17.3601H24.5V17.3438Z" stroke="#ECEFF3" stroke-width="1.5" stroke-linecap="round" stroke-linejoin="round"/>
</g>
</svg>
