<svg width="41" height="41" viewBox="0 0 41 41" fill="none" xmlns="http://www.w3.org/2000/svg">
<g id="Icon/Play">
<path id="Vector" d="M35.875 20.5C35.875 22.5191 35.4773 24.5184 34.7046 26.3838C33.932 28.2491 32.7995 29.9441 31.3718 31.3718C29.9441 32.7995 28.2491 33.932 26.3838 34.7046C24.5184 35.4773 22.5191 35.875 20.5 35.875C18.4809 35.875 16.4816 35.4773 14.6162 34.7046C12.7509 33.932 11.0559 32.7995 9.62823 31.3718C8.20053 29.9441 7.06802 28.2491 6.29535 26.3838C5.52269 24.5184 5.125 22.5191 5.125 20.5C5.125 16.4223 6.74486 12.5116 9.62823 9.62823C12.5116 6.74486 16.4223 5.125 20.5 5.125C24.5777 5.125 28.4884 6.74486 31.3718 9.62823C34.2551 12.5116 35.875 16.4223 35.875 20.5Z" stroke="#ECEFF3" stroke-width="1.5" stroke-linecap="round" stroke-linejoin="round"/>
<path id="Vector_2" d="M27.1796 19.9397C27.2796 19.9951 27.363 20.0763 27.421 20.1748C27.4791 20.2734 27.5097 20.3856 27.5097 20.5C27.5097 20.6144 27.4791 20.7266 27.421 20.8252C27.363 20.9237 27.2796 21.0049 27.1796 21.0603L17.6078 26.3784C17.5103 26.4325 17.4003 26.4603 17.2887 26.4588C17.1772 26.4574 17.0679 26.4269 16.9718 26.3703C16.8757 26.3137 16.796 26.233 16.7407 26.1361C16.6853 26.0392 16.6562 25.9296 16.6563 25.818V15.182C16.6563 14.6934 17.1807 14.3859 17.6078 14.6233L27.1796 19.9397Z" stroke="#ECEFF3" stroke-width="1.5" stroke-linecap="round" stroke-linejoin="round"/>
</g>
</svg>
