<svg width="40" height="40" viewBox="0 0 40 40" fill="none" xmlns="http://www.w3.org/2000/svg">
<g id="Share">
<path id="Vector" d="M9.89205 17.8284C9.38144 16.9777 8.5802 16.3082 7.61409 15.9247C6.64798 15.5413 5.57171 15.4658 4.55422 15.71C3.53672 15.9542 2.63561 16.5043 1.99232 17.2739C1.34904 18.0436 1 18.9892 1 19.9624C1 20.9356 1.34904 21.8812 1.99232 22.6509C2.63561 23.4205 3.53672 23.9706 4.55422 24.2148C5.57171 24.459 6.64798 24.3835 7.61409 24.0001C8.5802 23.6166 9.38144 22.9471 9.89205 22.0964M9.89205 17.8284C10.2716 18.461 10.4888 19.1873 10.4888 19.9624C10.4888 20.7375 10.2716 21.4658 9.89205 22.0964M9.89205 17.8284L30.0646 7.45317M9.89205 22.0964L30.0646 32.4716M30.0646 7.45317C30.3604 7.96888 30.7642 8.42483 31.2525 8.79435C31.7408 9.16388 32.3038 9.43956 32.9086 9.60529C33.5133 9.77102 34.1476 9.82347 34.7745 9.75957C35.4014 9.69567 36.0082 9.5167 36.5595 9.23313C37.1108 8.94956 37.5955 8.56708 37.9853 8.10804C38.3751 7.64901 38.6621 7.12264 38.8296 6.55971C38.9971 5.99677 39.0417 5.40857 38.9608 4.82948C38.8799 4.2504 38.6751 3.69206 38.3585 3.18711C37.7344 2.19203 36.7136 1.46338 35.5154 1.15778C34.3172 0.852175 33.0374 0.994024 31.951 1.55283C30.8646 2.11164 30.0584 3.04279 29.7056 4.14613C29.3529 5.24947 29.4818 6.4369 30.0646 7.45317ZM30.0646 32.4716C29.7619 32.9761 29.5695 33.5308 29.4984 34.1041C29.4273 34.6774 29.4788 35.2581 29.65 35.813C29.8213 36.3678 30.1089 36.886 30.4964 37.338C30.884 37.7899 31.3639 38.1668 31.9088 38.4471C32.4536 38.7273 33.0528 38.9054 33.672 38.9713C34.2912 39.0371 34.9183 38.9894 35.5176 38.8309C36.1169 38.6724 36.6766 38.4061 37.1648 38.0472C37.6529 37.6884 38.06 37.2441 38.3627 36.7396C38.974 35.7208 39.1231 34.5189 38.7773 33.3983C38.4314 32.2777 37.6189 31.3302 36.5185 30.7642C35.4182 30.1983 34.12 30.0602 32.9097 30.3804C31.6993 30.7006 30.6759 31.4528 30.0646 32.4716Z" stroke="#ECEFF3" stroke-width="1.5" stroke-linecap="round" stroke-linejoin="round"/>
</g>
</svg>
