<svg width="45" height="46" viewBox="0 0 45 46" fill="none" xmlns="http://www.w3.org/2000/svg">
<g id="Stats">
<path id="Vector" d="M5.625 25.1094C5.625 23.945 6.57 23 7.73438 23H11.9531C13.1175 23 14.0625 23.945 14.0625 25.1094V37.7656C14.0625 38.93 13.1175 39.875 11.9531 39.875H7.73438C7.17493 39.875 6.63841 39.6528 6.24282 39.2572C5.84724 38.8616 5.625 38.3251 5.625 37.7656V25.1094ZM18.2812 16.6719C18.2812 15.5075 19.2263 14.5625 20.3906 14.5625H24.6094C25.7737 14.5625 26.7188 15.5075 26.7188 16.6719V37.7656C26.7188 38.93 25.7737 39.875 24.6094 39.875H20.3906C19.8312 39.875 19.2947 39.6528 18.8991 39.2572C18.5035 38.8616 18.2812 38.3251 18.2812 37.7656V16.6719ZM30.9375 8.23438C30.9375 7.07 31.8825 6.125 33.0469 6.125H37.2656C38.43 6.125 39.375 7.07 39.375 8.23438V37.7656C39.375 38.93 38.43 39.875 37.2656 39.875H33.0469C32.4874 39.875 31.9509 39.6528 31.5553 39.2572C31.1597 38.8616 30.9375 38.3251 30.9375 37.7656V8.23438Z" stroke="#ECEFF3" stroke-width="1.5" stroke-linecap="round" stroke-linejoin="round"/>
</g>
</svg>
